<svg width="535" height="493" viewBox="0 0 535 493" fill="none" xmlns="http://www.w3.org/2000/svg">
<path d="M527.332 7C528.582 9.49946 528.7 11.892 529.015 14.6401C529.346 17.1021 529.807 19.5079 530.305 21.9414C538.199 61.7757 534.169 107.497 511.848 142.363C496.23 165.583 472.781 182.894 445.332 189C461.847 191.59 478.775 189.303 495.332 188C493.739 192.145 491.747 195.785 489.332 199.5C488.936 200.11 488.54 200.72 488.132 201.349C466.108 234.821 435.391 259.886 395.657 268.367C384.964 270.404 374.137 271.721 363.332 273C367.829 273.987 372.327 274.965 376.827 275.936C378.353 276.266 379.878 276.599 381.403 276.934C390.03 278.828 398.482 280.541 407.332 281C407.332 281.66 407.332 282.32 407.332 283C406.672 283 406.012 283 405.332 283C405.002 283.99 404.672 284.98 404.332 286C402.213 287.315 402.213 287.315 399.391 288.637C398.345 289.128 397.298 289.619 396.221 290.125C395.082 290.64 393.943 291.156 392.77 291.688C391.596 292.221 390.422 292.755 389.213 293.305C367.291 303.079 344.704 308.637 321.27 313.457C318.746 313.977 316.222 314.499 313.698 315.021C310.415 315.701 307.129 316.366 303.841 317.021C290.922 319.64 278.224 322.858 266.582 329.25C265.874 329.632 265.167 330.014 264.438 330.408C258.103 333.933 252.669 338.075 247.332 343C246.715 343.549 246.097 344.098 245.461 344.664C233.687 355.704 225.57 370.073 218.02 384.148C217.441 385.226 216.863 386.304 216.267 387.415C215.119 389.564 213.979 391.718 212.848 393.876C212.057 395.366 212.057 395.366 211.25 396.887C210.784 397.776 210.317 398.665 209.837 399.581C208.235 402.156 206.647 404.041 204.332 406C200.895 406.625 200.895 406.625 197.332 406C193.686 402.819 192.5 401.627 192 396.789C192.396 392.273 193.673 389.005 195.582 384.938C195.938 384.163 196.293 383.388 196.66 382.59C207.641 359.14 220.966 336.102 237.332 316C238.201 314.883 239.067 313.763 239.93 312.641C242.687 309.059 245.493 305.518 248.332 302C249 301.171 249 301.171 249.682 300.325C264.415 282.252 281.462 264.713 300.332 251C302.033 249.665 303.719 248.311 305.405 246.957C313.089 240.798 321.092 235.132 329.172 229.507C331.977 227.55 334.769 225.575 337.561 223.6C350.984 214.1 364.433 204.639 378.02 195.375C404.358 177.393 429.894 158.789 452.332 136C444.856 140.699 437.492 145.546 430.167 150.476C418.062 158.611 405.806 166.441 393.332 174C392.264 174.648 391.195 175.296 390.095 175.963C387.769 177.374 385.443 178.784 383.117 180.194C382.525 180.553 381.932 180.912 381.322 181.282C380.122 182.01 378.921 182.738 377.721 183.465C313.949 221.949 313.949 221.949 257.332 270C256.455 270.83 255.579 271.66 254.676 272.516C243.272 283.48 233.703 295.822 226.016 309.656C224.098 312.326 223.419 312.424 220.332 313C223.135 282.536 229.385 253.761 242.332 226C242.864 224.83 243.397 223.659 243.945 222.453C250.84 207.907 260.118 195.471 271.332 184C272.17 183.1 273.008 182.2 273.871 181.273C285.673 168.902 299.933 159.112 314.332 150C314.9 149.64 315.468 149.28 316.053 148.91C327.228 141.896 338.885 135.726 350.514 129.509C352.962 128.198 355.404 126.879 357.844 125.555C365.468 121.438 373.192 117.59 381.02 113.875C414.375 98.0316 447.599 81.5365 476.332 58C477.183 57.3037 477.183 57.3037 478.051 56.5933C492.747 44.4474 506.657 31.0992 518.332 16C523.732 9.4 523.732 9.4 527.332 7Z" fill="url(#paint0_linear_4_231)"/>
<path d="M33.8244 40.1494C35.0256 40.1424 36.2268 40.1355 37.4644 40.1283C40.7772 40.1133 44.089 40.116 47.4017 40.1265C50.9826 40.1335 54.5634 40.1175 58.1442 40.1045C65.1509 40.0829 72.1574 40.083 79.164 40.0911C84.8607 40.0974 90.5574 40.0963 96.2541 40.0899C97.0659 40.089 97.8778 40.0881 98.7142 40.0871C100.364 40.0853 102.013 40.0834 103.663 40.0815C119.118 40.065 134.574 40.0737 150.029 40.0905C164.158 40.1052 178.286 40.0906 192.415 40.0617C206.936 40.0323 221.456 40.0214 235.978 40.0309C237.621 40.032 239.265 40.0329 240.908 40.0339C242.121 40.0346 242.121 40.0346 243.358 40.0354C249.045 40.0375 254.732 40.0277 260.418 40.0131C267.353 39.9956 274.288 39.9958 281.223 40.0185C284.758 40.0296 288.293 40.0328 291.829 40.0142C295.668 39.9942 299.506 40.0132 303.345 40.0359C304.453 40.024 305.562 40.0122 306.704 40C314.728 40.096 321.545 41.8549 327.558 47.4372C335.961 56.5941 336.072 66.7912 335.737 78.644C335.208 90.664 335.208 90.664 331.211 95.7891C324.925 100.388 324.925 100.388 319.648 99.6641C316.634 98.0919 315.431 97.4397 313.648 94.6641C312.791 89.9615 312.855 85.308 312.898 80.5391C312.89 77.9947 312.875 75.4504 312.851 72.9062C312.858 71.7807 312.865 70.6552 312.872 69.4956C312.863 66.4589 312.863 66.4589 310.648 63.6641C307.58 62.6412 305.492 62.5359 302.278 62.5303C300.607 62.5239 300.607 62.5239 298.901 62.5174C297.066 62.5181 297.066 62.5181 295.194 62.5188C293.906 62.5154 292.618 62.5121 291.291 62.5086C287.755 62.4998 284.22 62.4974 280.685 62.4968C278.476 62.4961 276.266 62.494 274.057 62.4913C266.347 62.482 258.637 62.478 250.928 62.4788C243.745 62.4794 236.562 62.4688 229.379 62.453C223.21 62.4399 217.041 62.4346 210.872 62.4352C207.189 62.4355 203.505 62.4326 199.822 62.422C195.711 62.4105 191.601 62.4151 187.491 62.4211C186.273 62.4155 185.056 62.4099 183.802 62.4041C182.117 62.4104 182.117 62.4104 180.399 62.4168C179.427 62.4163 178.456 62.4157 177.455 62.4152C174.198 62.704 171.627 63.3035 168.648 64.6641C167.256 67.5528 167.518 70.7198 167.508 73.8949C167.502 74.9533 167.496 76.0118 167.49 77.1023C167.489 78.2583 167.488 79.4142 167.487 80.6052C167.482 81.8267 167.477 83.0482 167.472 84.3067C167.46 87.6539 167.452 91.0009 167.448 94.348C167.445 96.44 167.441 98.5319 167.436 100.624C167.423 107.171 167.413 113.719 167.409 120.267C167.405 127.821 167.387 135.375 167.358 142.929C167.337 148.772 167.326 154.615 167.325 160.458C167.324 163.946 167.318 167.435 167.3 170.923C167.281 174.813 167.285 178.703 167.292 182.594C167.278 184.324 167.278 184.324 167.264 186.09C167.269 187.152 167.275 188.213 167.281 189.306C167.279 190.226 167.278 191.145 167.276 192.092C167.732 195.246 168.748 197.121 170.648 199.664C174.477 200.94 178.089 200.8 182.078 200.805C183.777 200.823 185.476 200.843 187.175 200.863C189.851 200.892 192.525 200.914 195.2 200.915C197.785 200.918 200.368 200.952 202.953 200.992C203.749 200.985 204.545 200.978 205.365 200.971C209.631 201.064 211.191 201.294 214.629 204.081C217.798 208.135 218.166 210.485 217.648 215.664C215.875 218.641 213.792 221.092 210.648 222.664C207.937 222.773 205.247 222.825 202.535 222.84C200.878 222.863 199.221 222.887 197.564 222.912C194.95 222.947 192.337 222.977 189.723 222.99C187.202 223.005 184.681 223.046 182.16 223.09C180.994 223.087 180.994 223.087 179.804 223.084C174.802 223.196 172.149 224.062 168.648 227.664C166.939 231.082 167.5 235 167.501 238.761C167.497 239.716 167.494 240.67 167.49 241.653C167.479 244.872 167.475 248.09 167.471 251.308C167.465 253.607 167.458 255.906 167.451 258.206C167.434 264.466 167.423 270.726 167.415 276.987C167.41 280.894 167.404 284.801 167.397 288.709C167.381 299.523 167.366 310.337 167.359 321.15C167.357 323.957 167.355 326.764 167.353 329.571C167.352 330.268 167.352 330.966 167.351 331.685C167.343 342.992 167.318 354.299 167.285 365.606C167.252 377.209 167.235 388.812 167.231 400.415C167.229 406.932 167.22 413.449 167.195 419.966C167.171 426.094 167.167 432.222 167.177 438.35C167.178 440.603 167.171 442.856 167.158 445.108C167.14 448.177 167.147 451.244 167.16 454.313C167.149 455.21 167.138 456.108 167.127 457.033C167.158 461.953 167.158 461.953 169.491 466.186C172.998 468.589 175.81 468.792 179.948 468.804C181.048 468.81 182.147 468.816 183.279 468.822C184.486 468.823 185.692 468.824 186.935 468.825C188.205 468.83 189.475 468.835 190.784 468.84C194.269 468.853 197.755 468.86 201.24 468.864C203.418 468.867 205.596 468.871 207.774 468.876C214.588 468.889 221.403 468.899 228.218 468.903C236.083 468.907 243.949 468.925 251.814 468.954C257.895 468.976 263.975 468.986 270.056 468.987C273.688 468.988 277.319 468.994 280.95 469.012C285.001 469.031 289.052 469.027 293.103 469.021C294.305 469.03 295.507 469.039 296.746 469.048C297.851 469.043 298.955 469.037 300.094 469.032C301.051 469.033 302.009 469.034 302.995 469.036C306.173 468.59 308.062 467.534 310.648 465.664C311.81 463.339 311.78 461.984 311.793 459.395C311.8 458.499 311.807 457.603 311.814 456.68C311.816 455.695 311.819 454.709 311.822 453.694C311.828 452.658 311.835 451.622 311.842 450.555C311.856 448.3 311.868 446.045 311.878 443.789C311.894 440.222 311.917 436.654 311.943 433.086C312.014 422.94 312.074 412.793 312.125 402.647C312.157 396.446 312.198 390.245 312.245 384.044C312.261 381.679 312.273 379.313 312.282 376.948C312.294 373.639 312.318 370.331 312.345 367.022C312.346 366.043 312.346 365.063 312.347 364.054C312.441 355.251 312.441 355.251 314.648 351.664C318.36 348.12 320.644 347.164 325.752 347.159C326.978 347.147 328.205 347.136 329.469 347.125C330.82 347.133 332.172 347.141 333.523 347.15C334.952 347.144 336.382 347.137 337.811 347.128C340.885 347.113 343.958 347.11 347.032 347.117C351.894 347.128 356.756 347.11 361.618 347.089C369.311 347.059 377.003 347.047 384.695 347.044C398.466 347.037 412.237 347.008 426.008 346.959C430.839 346.942 435.67 346.937 440.502 346.94C443.51 346.941 446.518 346.933 449.526 346.923C450.919 346.921 452.311 346.922 453.703 346.926C455.608 346.932 457.513 346.924 459.417 346.916C460.482 346.915 461.547 346.915 462.644 346.915C465.988 346.636 468.597 346.073 471.648 344.664C472.644 342.82 472.644 342.82 472.648 340.664C472.713 339.663 472.713 339.663 472.778 338.642C472.781 337.924 472.783 337.205 472.786 336.465C472.794 335.22 472.794 335.22 472.803 333.95C472.804 333.048 472.805 332.147 472.806 331.217C472.811 330.261 472.816 329.304 472.821 328.319C472.832 326.242 472.84 324.166 472.847 322.09C472.859 318.803 472.879 315.516 472.9 312.23C472.962 302.885 473.016 293.54 473.049 284.194C473.07 278.477 473.106 272.76 473.15 267.044C473.164 264.866 473.173 262.688 473.176 260.511C473.181 257.463 473.204 254.417 473.232 251.37C473.229 250.472 473.226 249.574 473.222 248.649C473.301 242.719 474.098 238.161 478.527 233.824C481.028 232.456 482.742 232.167 485.586 232.102C486.837 232.038 486.837 232.038 488.113 231.973C491.2 232.815 492.617 234.303 494.583 236.779C496.595 240.34 496.327 244.02 496.27 248.019C496.276 248.953 496.282 249.887 496.289 250.849C496.304 253.974 496.284 257.098 496.263 260.224C496.267 262.466 496.272 264.709 496.28 266.951C496.294 273.04 496.277 279.129 496.254 285.218C496.234 291.592 496.24 297.966 496.242 304.34C496.242 315.047 496.222 325.754 496.19 336.462C496.157 347.466 496.143 358.471 496.149 369.475C496.157 382.748 496.149 396.021 496.127 409.294C496.119 414.358 496.116 419.422 496.118 424.486C496.119 430.454 496.105 436.422 496.079 442.39C496.072 444.578 496.07 446.765 496.073 448.953C496.077 451.945 496.062 454.936 496.042 457.928C496.048 458.789 496.053 459.65 496.059 460.537C495.955 469.86 493.429 476.905 486.933 483.648C474.963 494.206 457.656 491.813 442.669 491.798C440.887 491.8 439.104 491.802 437.321 491.805C432.458 491.811 427.595 491.811 422.732 491.809C417.473 491.809 412.215 491.815 406.957 491.819C396.671 491.828 386.385 491.831 376.099 491.831C367.739 491.832 359.379 491.834 351.019 491.837C327.302 491.846 303.585 491.85 279.867 491.849C278.591 491.849 277.314 491.849 275.998 491.849C274.72 491.849 273.441 491.849 272.124 491.849C251.384 491.849 230.644 491.858 209.904 491.872C188.593 491.887 167.283 491.894 145.973 491.893C134.014 491.893 122.056 491.895 110.097 491.906C99.9215 491.915 89.7461 491.917 79.5707 491.911C74.3806 491.907 69.1906 491.907 64.0005 491.916C59.2474 491.924 54.4944 491.922 49.7412 491.914C48.0241 491.912 46.307 491.914 44.5899 491.919C30.5568 491.962 19.3901 491.727 8.63634 481.809C-0.0749874 472.659 0.210381 462.208 0.253651 450.274C0.248758 448.602 0.242565 446.931 0.235192 445.26C0.218821 440.682 0.221105 436.104 0.226567 431.526C0.229241 426.583 0.214701 421.641 0.202473 416.698C0.181432 407.02 0.176879 397.342 0.178662 387.665C0.17997 379.798 0.176162 371.932 0.168736 364.066C0.166637 361.799 0.164538 359.532 0.162442 357.266C0.161398 356.137 0.160355 355.009 0.15928 353.847C0.140383 332.515 0.141428 311.184 0.148251 289.853C0.153828 270.341 0.132993 250.829 0.0998885 231.317C0.0661525 211.277 0.050985 191.237 0.0556075 171.197C0.0578521 159.948 0.0526102 148.7 0.0277145 137.451C0.0067027 127.875 0.00310959 118.3 0.0220153 108.725C0.0311733 103.84 0.0323127 98.9563 0.0116584 94.072C-0.00705186 89.5979 -0.00254849 85.1245 0.0202033 80.6504C0.0243889 79.0348 0.0201908 77.4191 0.00660774 75.8035C-0.0806117 64.6682 1.22791 56.2604 8.89806 47.7891C16.3154 41.0215 24.0944 40.0772 33.8244 40.1494ZM22.6481 65.6641C21.6497 68.6592 21.5177 70.6459 21.5076 73.7746C21.5019 74.8317 21.4962 75.8888 21.4903 76.9779C21.4892 78.1374 21.4881 79.297 21.4869 80.4917C21.482 81.713 21.477 82.9344 21.4719 84.1928C21.4598 87.5441 21.4523 90.8953 21.4479 94.2466C21.4449 96.3407 21.4408 98.4348 21.4364 100.529C21.4227 107.082 21.413 113.635 21.4092 120.188C21.4047 127.751 21.3871 135.313 21.3582 142.876C21.3365 148.723 21.3265 154.57 21.3251 160.417C21.3241 163.909 21.3182 167.401 21.3003 170.892C21.2808 174.788 21.2851 178.682 21.2916 182.578C21.2824 183.733 21.2732 184.889 21.2637 186.079C21.2693 187.142 21.2748 188.205 21.2806 189.3C21.2791 190.22 21.2776 191.141 21.2761 192.089C21.736 195.273 22.7162 197.103 24.6481 199.664C27.5094 201.615 29.8129 201.916 33.2335 201.925C34.1489 201.932 35.0643 201.939 36.0075 201.946C37.0045 201.944 38.0015 201.941 39.0287 201.939C40.0844 201.944 41.1401 201.949 42.2277 201.954C45.7208 201.968 49.2136 201.967 52.7067 201.965C55.1328 201.969 57.5589 201.973 59.985 201.978C65.0717 201.985 70.1583 201.985 75.245 201.98C81.7665 201.974 88.2877 201.991 94.8092 202.014C99.82 202.029 104.831 202.03 109.842 202.027C112.246 202.027 114.651 202.032 117.055 202.042C120.416 202.055 123.777 202.048 127.138 202.036C128.631 202.048 128.631 202.048 130.153 202.06C136.921 202.04 136.921 202.04 142.648 198.664C144.592 195.531 144.901 193.129 144.909 189.471C144.916 188.421 144.923 187.371 144.93 186.289C144.928 185.143 144.925 183.996 144.923 182.815C144.93 180.997 144.93 180.997 144.938 179.143C144.95 175.822 144.952 172.502 144.95 169.182C144.949 166.409 144.953 163.635 144.958 160.862C144.969 154.318 144.97 147.775 144.964 141.231C144.958 134.484 144.97 127.737 144.991 120.99C145.009 115.193 145.015 109.397 145.012 103.601C145.01 100.141 145.012 96.6803 145.026 93.2199C145.041 89.3608 145.032 85.502 145.02 81.6428C145.028 80.4982 145.036 79.3537 145.044 78.1744C145.037 77.1215 145.03 76.0687 145.022 74.9839C145.022 74.0719 145.023 73.1599 145.023 72.2203C144.432 68.1896 142.638 65.5294 139.603 62.8768C135.207 61.0726 131.078 61.2382 126.369 61.26C125.336 61.2531 124.303 61.2463 123.239 61.2392C119.825 61.2209 116.413 61.2248 113 61.2305C110.625 61.2259 108.25 61.2206 105.874 61.2146C100.896 61.2056 95.9182 61.2081 90.9401 61.218C84.5655 61.2295 78.1916 61.2093 71.8171 61.1801C66.9117 61.1617 62.0064 61.162 57.101 61.1677C54.7511 61.1679 52.4012 61.1618 50.0513 61.1494C46.7624 61.1345 43.4745 61.1452 40.1857 61.1623C39.2182 61.1527 38.2506 61.143 37.2538 61.133C31.2276 61.1987 27.5323 62.0375 22.6481 65.6641ZM335.86 373.329C334.058 376.801 334.231 380.204 334.26 384.025C334.255 384.866 334.249 385.707 334.244 386.574C334.231 389.353 334.239 392.131 334.25 394.91C334.248 396.843 334.245 398.776 334.241 400.709C334.237 404.76 334.243 408.811 334.257 412.862C334.274 418.051 334.264 423.241 334.246 428.43C334.235 432.422 334.239 436.414 334.247 440.406C334.249 442.319 334.246 444.232 334.239 446.146C334.232 448.822 334.243 451.497 334.26 454.174C334.254 454.963 334.248 455.752 334.241 456.565C334.294 461.095 334.733 464.126 337.648 467.664C340.774 469.618 343.187 469.917 346.841 469.925C347.891 469.932 348.941 469.939 350.023 469.946C351.169 469.944 352.316 469.941 353.497 469.939C354.709 469.944 355.921 469.949 357.169 469.954C360.49 469.966 363.81 469.968 367.13 469.966C369.903 469.965 372.677 469.969 375.45 469.974C381.994 469.985 388.537 469.986 395.081 469.98C401.828 469.974 408.575 469.986 415.322 470.007C421.119 470.025 426.915 470.031 432.711 470.028C436.172 470.026 439.632 470.028 443.092 470.042C446.951 470.057 450.81 470.048 454.669 470.036C455.814 470.044 456.958 470.052 458.138 470.06C459.191 470.052 460.243 470.045 461.328 470.038C462.696 470.039 462.696 470.039 464.092 470.039C467.806 469.494 470.632 467.975 472.943 464.993C474.004 461.488 473.934 458.023 473.923 454.395C473.928 453.563 473.933 452.732 473.938 451.875C473.952 449.129 473.951 446.383 473.949 443.637C473.953 441.726 473.957 439.816 473.962 437.905C473.969 433.901 473.969 429.898 473.964 425.894C473.958 420.765 473.975 415.636 473.998 410.506C474.013 406.561 474.014 402.616 474.011 398.67C474.011 396.779 474.016 394.888 474.026 392.997C474.039 390.352 474.032 387.708 474.02 385.063C474.028 384.283 474.036 383.503 474.044 382.699C474 378.179 473.626 375.142 470.648 371.664C465.212 367.697 459.295 368.241 452.847 368.276C451.664 368.271 450.481 368.265 449.263 368.26C446.031 368.249 442.8 368.252 439.569 368.261C436.181 368.269 432.794 368.262 429.406 368.257C423.719 368.251 418.033 368.259 412.346 368.273C405.777 368.289 399.209 368.284 392.64 368.267C386.992 368.254 381.344 368.252 375.697 368.26C372.327 368.264 368.957 368.265 365.587 368.255C361.831 368.248 358.076 368.259 354.32 368.276C353.206 368.27 352.093 368.264 350.946 368.257C349.409 368.27 349.409 368.27 347.841 368.283C346.51 368.285 346.51 368.285 345.152 368.287C341.312 368.865 338.665 370.717 335.86 373.329Z" fill="black"/>
<path d="M31.2558 223.362C32.167 223.354 33.0782 223.347 34.017 223.34C35.0196 223.337 36.0223 223.335 37.0553 223.332C38.109 223.325 39.1628 223.319 40.2486 223.312C43.7476 223.292 47.2466 223.28 50.7457 223.271C51.9389 223.266 53.1321 223.262 54.3615 223.258C60.6772 223.237 66.9929 223.223 73.3087 223.214C79.8369 223.203 86.3648 223.168 92.8929 223.128C97.908 223.102 102.923 223.094 107.938 223.09C110.345 223.085 112.751 223.074 115.158 223.055C118.526 223.031 121.894 223.032 125.262 223.039C126.257 223.026 127.251 223.013 128.276 223C134.98 223.05 138.596 224.34 143.551 229.067C145.673 232.858 145.334 236.52 145.305 240.795C145.311 241.746 145.316 242.696 145.322 243.676C145.336 246.869 145.329 250.063 145.322 253.256C145.327 255.543 145.334 257.829 145.342 260.116C145.36 266.332 145.359 272.549 145.353 278.766C145.35 283.953 145.356 289.139 145.363 294.326C145.377 307.26 145.374 320.195 145.362 333.129C145.352 344.361 145.365 355.592 145.389 366.823C145.413 378.356 145.422 389.889 145.416 401.422C145.413 407.897 145.415 414.371 145.432 420.846C145.448 426.935 145.444 433.023 145.425 439.112C145.421 441.347 145.424 443.583 145.435 445.819C145.448 448.869 145.436 451.918 145.419 454.969C145.433 456.298 145.433 456.298 145.448 457.655C145.383 463.06 144.621 466.287 140.918 470.509C138.038 472.505 135.717 472.762 132.256 472.776C131.324 472.785 130.392 472.793 129.431 472.802C128.416 472.801 127.4 472.8 126.353 472.799C124.741 472.809 124.741 472.809 123.095 472.82C119.537 472.839 115.979 472.843 112.421 472.845C109.951 472.851 107.48 472.858 105.009 472.865C99.8278 472.877 94.647 472.881 89.4661 472.879C82.8235 472.879 76.1813 472.907 69.5388 472.941C64.4353 472.963 59.3319 472.967 54.2284 472.966C51.7791 472.969 49.3299 472.977 46.8807 472.993C43.4572 473.012 40.0347 473.007 36.6112 472.995C35.5975 473.006 34.5838 473.017 33.5394 473.029C29.3464 472.991 26.6467 472.914 22.9367 470.853C18.0587 465.189 17.4771 460.276 17.5097 453.109C17.5022 452.171 17.4947 451.232 17.487 450.265C17.4656 447.124 17.4657 443.983 17.4659 440.841C17.4553 438.587 17.4435 436.334 17.4305 434.08C17.3997 427.96 17.3886 421.84 17.3829 415.72C17.3785 411.896 17.3701 408.073 17.3604 404.249C17.3336 393.655 17.3109 383.06 17.3085 372.466C17.3083 371.788 17.3082 371.111 17.308 370.413C17.3077 369.04 17.3074 367.667 17.3071 366.294C17.3069 365.272 17.3069 365.272 17.3067 364.229C17.3066 363.547 17.3064 362.864 17.3063 362.161C17.3032 351.103 17.2666 340.044 17.2151 328.986C17.1626 317.622 17.137 306.259 17.1369 294.895C17.1364 288.519 17.1248 282.143 17.0857 275.766C17.0499 269.769 17.0476 263.773 17.0709 257.776C17.0738 255.577 17.0647 253.377 17.0427 251.178C17.0146 248.172 17.0297 245.168 17.0556 242.162C17.0281 240.861 17.0281 240.861 17 239.533C17.1185 233.426 19.012 230.397 23.2213 226.017C25.9529 223.588 27.6916 223.381 31.2558 223.362Z" fill="url(#paint1_linear_4_231)"/>
<path d="M395.667 1.62939C396.462 -0.54313 399.535 -0.54313 400.33 1.62939L402.705 8.11383C404.567 13.2008 407.516 17.8205 411.347 21.6509C415.177 25.4814 419.797 28.4305 424.884 30.2927L431.368 32.6673C433.544 33.4621 433.544 36.5354 431.368 37.3302L424.884 39.7048C419.797 41.567 415.177 44.5161 411.347 48.3466C407.516 52.177 404.567 56.7967 402.705 61.8837L400.33 68.3681C399.535 70.544 396.462 70.544 395.667 68.3681L393.293 61.8837C391.431 56.7967 388.481 52.177 384.651 48.3466C380.82 44.5161 376.201 41.567 371.114 39.7048L364.629 37.3302C362.457 36.5354 362.457 33.4621 364.629 32.6673L371.114 30.2927C376.201 28.4305 380.82 25.4814 384.651 21.6509C388.481 17.8205 391.431 13.2008 393.293 8.11383L395.667 1.62939Z" fill="url(#paint2_linear_4_231)"/>
<defs>
<linearGradient id="paint0_linear_4_231" x1="363.01" y1="7" x2="363.01" y2="406.469" gradientUnits="userSpaceOnUse">
<stop/>
<stop offset="1" stop-color="#1A1A1A"/>
</linearGradient>
<linearGradient id="paint1_linear_4_231" x1="81.2239" y1="223" x2="81.2239" y2="473.029" gradientUnits="userSpaceOnUse">
<stop/>
<stop offset="1" stop-color="#1A1A1A"/>
</linearGradient>
<linearGradient id="paint2_linear_4_231" x1="398" y1="0" x2="398" y2="70" gradientUnits="userSpaceOnUse">
<stop/>
<stop offset="1" stop-color="#1B1B1B"/>
</linearGradient>
</defs>
</svg>
